<svg xmlns="http://www.w3.org/2000/svg" xmlns:xlink="http://www.w3.org/1999/xlink" width="500" zoomAndPan="magnify" viewBox="0 0 375 374.999991" height="500" preserveAspectRatio="xMidYMid meet" version="1.0"><defs><g/><clipPath id="7f21199b59"><path d="M 43 137.398438 L 71 137.398438 L 71 166 L 43 166 Z M 43 137.398438 " clip-rule="nonzero"/></clipPath><clipPath id="f5167dbbaf"><path d="M 79 154 L 106.699219 154 L 106.699219 178 L 79 178 Z M 79 154 " clip-rule="nonzero"/></clipPath><clipPath id="598822c6b3"><path d="M 22.699219 167 L 74 167 L 74 210.898438 L 22.699219 210.898438 Z M 22.699219 167 " clip-rule="nonzero"/></clipPath><clipPath id="d262404fbc"><path d="M 22.699219 168 L 73 168 L 73 210.898438 L 22.699219 210.898438 Z M 22.699219 168 " clip-rule="nonzero"/></clipPath></defs><g clip-path="url(#7f21199b59)"><path stroke-linecap="butt" transform="matrix(0.177502, 0, 0, 0.177237, 19.247997, 129.512087)" fill="none" stroke-linejoin="miter" d="M 181.259315 52.739055 C 199.701016 44.562306 220.101322 50.182443 237.552717 58.777947 C 257.006731 68.938274 276.900881 83.748988 284.88935 106.978889 C 288.476459 116.455983 286.121731 127.519939 279.959826 134.947336 C 275.11833 139.553645 268.2302 138.275339 262.420404 137.614146 C 249.260336 134.484501 241.183839 121.436967 230.950676 112.907582 C 222.081934 104.223919 212.619009 94.812945 200.603294 92.410611 C 189.885981 90.449073 180.577104 98.339305 173.710981 106.516054 C 163.367784 120.687615 156.85377 137.724345 151.748192 154.937393 C 148.447171 169.946465 141.404994 184.250265 142.263259 200.096848 C 141.250947 185.484491 137.50979 171.26885 137.135674 156.590374 C 136.47547 137.658226 138.632137 118.637918 142.901457 100.322883 C 150.735879 80.729542 162.861627 61.312519 181.259315 52.761094 Z M 181.259315 52.739055 " stroke="#000000" stroke-width="0.1" stroke-opacity="1" stroke-miterlimit="10"/></g><path fill="#ffffff" d="M 51.421875 138.859375 C 54.695312 137.410156 58.316406 138.40625 61.414062 139.929688 C 64.867188 141.730469 68.398438 144.355469 69.816406 148.472656 C 70.453125 150.152344 70.035156 152.113281 68.941406 153.429688 C 68.082031 154.246094 66.859375 154.019531 65.828125 153.902344 C 63.492188 153.347656 62.058594 151.035156 60.242188 149.523438 C 58.667969 147.984375 56.988281 146.316406 54.855469 145.890625 C 52.953125 145.542969 51.300781 146.941406 50.082031 148.390625 C 48.246094 150.902344 47.089844 153.921875 46.183594 156.972656 C 45.597656 159.632812 44.347656 162.167969 44.5 164.976562 C 44.320312 162.386719 43.65625 159.867188 43.589844 157.265625 C 43.472656 153.910156 43.855469 150.539062 44.613281 147.292969 C 46.003906 143.820312 48.15625 140.378906 51.421875 138.863281 Z M 51.421875 138.859375 " fill-opacity="1" fill-rule="nonzero"/><path stroke-linecap="butt" transform="matrix(0.177502, 0, 0, 0.177237, 19.247997, 129.512087)" fill="none" stroke-linejoin="miter" d="M 349.45731 65.301714 C 362.81544 63.560574 376.833773 69.401108 385.812549 80.575264 C 391.886427 88.906291 395.979692 99.375174 395.913672 110.218732 C 394.725304 123.376465 388.761461 136.37992 378.814386 143.961595 C 367.106766 153.196252 351.085814 155.113711 337.881732 148.722182 C 318.295677 140.435235 306.874146 112.378628 316.953262 91.198425 C 322.609011 76.784426 335.681052 67.417531 349.45731 65.301714 Z M 349.45731 65.301714 " stroke="#000000" stroke-width="0.1" stroke-opacity="1" stroke-miterlimit="10"/><path fill="#ffffff" d="M 81.277344 141.085938 C 83.648438 140.777344 86.136719 141.8125 87.730469 143.792969 C 88.808594 145.269531 89.535156 147.125 89.523438 149.046875 C 89.3125 151.378906 88.253906 153.683594 86.488281 155.027344 C 84.410156 156.664062 81.566406 157.003906 79.222656 155.871094 C 75.746094 154.402344 73.71875 149.429688 75.507812 145.675781 C 76.511719 143.121094 78.832031 141.460938 81.277344 141.085938 Z M 81.277344 141.085938 " fill-opacity="1" fill-rule="nonzero"/><g clip-path="url(#f5167dbbaf)"><path stroke-linecap="butt" transform="matrix(0.177502, 0, 0, 0.177237, 19.247997, 129.512087)" fill="none" stroke-linejoin="miter" d="M 488.474285 141.823739 C 489.26653 141.77966 490.058775 141.75762 490.873027 141.77966 C 490.520918 149.581733 492.36949 157.383805 491.203129 165.163838 C 489.354558 178.541969 484.491054 191.104629 479.253435 203.204453 C 467.72187 231.790014 445.935135 255.39459 419.504965 266.524666 C 407.379216 271.263213 392.986767 270.910577 382.049386 262.777908 C 364.377923 249.950771 350.469623 230.37947 344.395746 207.788722 C 340.544555 195.578699 340.412514 180.922262 347.036562 169.880346 C 350.337583 165.0316 354.804964 159.60982 360.790814 159.984496 C 366.974726 160.601609 372.498433 164.745083 376.217583 170.122783 C 384.998297 182.92788 386.846869 199.611973 394.087107 213.298661 C 400.138978 222.136602 409.932005 232.605485 420.759352 227.448182 C 433.831393 221.321131 444.812788 210.874288 455.420067 200.647842 C 468.844217 187.820705 478.175102 170.695817 485.635408 153.041974 C 487.13187 149.515613 488.16619 145.746815 488.474285 141.823739 Z M 488.474285 141.823739 " stroke="#000000" stroke-width="0.1" stroke-opacity="1" stroke-miterlimit="10"/><path fill="#ffffff" d="M 105.953125 154.648438 C 106.09375 154.640625 106.234375 154.636719 106.378906 154.640625 C 106.316406 156.023438 106.644531 157.40625 106.4375 158.785156 C 106.109375 161.15625 105.246094 163.382812 104.316406 165.527344 C 102.269531 170.59375 98.402344 174.777344 93.710938 176.75 C 91.558594 177.589844 89.003906 177.527344 87.0625 176.085938 C 83.925781 173.8125 81.457031 170.34375 80.378906 166.339844 C 79.695312 164.175781 79.671875 161.578125 80.847656 159.621094 C 81.433594 158.761719 82.226562 157.800781 83.289062 157.867188 C 84.386719 157.976562 85.367188 158.710938 86.027344 159.664062 C 87.585938 161.933594 87.914062 164.890625 89.199219 167.316406 C 90.273438 168.882812 92.011719 170.738281 93.933594 169.824219 C 96.253906 168.738281 98.203125 166.886719 100.085938 165.074219 C 102.46875 162.800781 104.125 159.765625 105.449219 156.636719 C 105.714844 156.011719 105.898438 155.34375 105.953125 154.648438 Z M 105.953125 154.648438 " fill-opacity="1" fill-rule="nonzero"/></g><g clip-path="url(#598822c6b3)"><path stroke-linecap="butt" transform="matrix(0.177502, 0, 0, 0.177237, 19.247997, 129.512087)" fill="none" stroke-linejoin="miter" d="M 162.399484 223.811623 C 170.167886 216.494425 181.63343 217.199697 190.656219 220.858296 C 199.723022 225.156048 209.273975 228.462011 217.57054 234.567023 C 230.422513 243.73556 242.702309 254.006086 253.70571 265.797354 C 266.117547 276.971509 277.649112 289.42397 287.552173 303.397174 C 294.836425 312.940387 302.450779 324.070463 301.878602 337.294315 C 296.486935 356.53502 281.65435 370.618423 266.227581 380.029397 C 245.761254 391.600268 222.918193 396.184537 201.04343 403.303377 C 191.580505 406.697499 181.655437 407.931726 171.818396 409.099833 C 160.682954 409.783065 149.481491 412.339676 138.346049 410.135701 C 145.476253 404.383325 154.10292 401.804674 161.959348 397.528962 C 184.472308 386.729483 205.664859 372.866477 227.605642 360.722573 C 236.892513 355.719549 246.003329 349.35006 251.306969 339.167694 C 251.02088 336.919639 250.756799 334.693624 250.47071 332.467609 C 244.242785 325.436927 236.518397 320.411864 228.573941 316.158191 C 219.309077 324.687576 208.613771 331.167263 200.075131 340.688437 C 176.637886 360.08342 150.713872 375.29085 125.758157 392.063103 C 92.153769 413.066988 60.353938 437.553155 26.111353 457.300774 C 24.108734 458.116245 22.062101 458.733358 19.971455 459.174153 C 33.131523 443.239411 48.448258 429.684963 61.388258 413.529823 C 80.072034 391.776586 98.75581 370.001309 118.253837 349.129663 C 138.852205 327.089909 158.856389 304.388963 177.936287 280.718267 C 169.881797 272.45336 159.494586 264.827605 157.051831 252.154746 C 154.71911 242.545414 156.083532 231.21698 162.399484 223.811623 Z M 162.399484 223.811623 " stroke="#000000" stroke-width="0.1" stroke-opacity="1" stroke-miterlimit="10"/></g><g clip-path="url(#d262404fbc)"><path fill="#ffffff" d="M 48.074219 169.179688 C 49.453125 167.882812 51.488281 168.007812 53.089844 168.65625 C 54.699219 169.417969 56.394531 170.003906 57.867188 171.085938 C 60.148438 172.710938 62.328125 174.53125 64.28125 176.621094 C 66.484375 178.601562 68.53125 180.808594 70.289062 183.285156 C 71.582031 184.976562 72.933594 186.949219 72.832031 189.292969 C 71.875 192.703125 69.242188 195.199219 66.503906 196.867188 C 62.871094 198.917969 58.816406 199.730469 54.933594 200.992188 C 53.253906 201.59375 51.492188 201.8125 49.746094 202.019531 C 47.769531 202.140625 45.78125 202.59375 43.804688 202.203125 C 45.070312 201.183594 46.601562 200.726562 47.996094 199.96875 C 51.992188 198.054688 55.753906 195.597656 59.648438 193.445312 C 61.296875 192.558594 62.914062 191.429688 63.855469 189.625 C 63.804688 189.226562 63.757812 188.832031 63.707031 188.4375 C 62.601562 187.191406 61.230469 186.300781 59.820312 185.546875 C 58.175781 187.058594 56.277344 188.207031 54.761719 189.894531 C 50.601562 193.332031 46 196.027344 41.570312 199 C 35.605469 202.722656 29.960938 207.0625 23.882812 210.5625 C 23.527344 210.707031 23.164062 210.816406 22.792969 210.894531 C 25.128906 208.070312 27.847656 205.667969 30.144531 202.804688 C 33.460938 198.949219 36.777344 195.089844 40.238281 191.390625 C 43.894531 187.484375 47.445312 183.460938 50.832031 179.265625 C 49.402344 177.800781 47.558594 176.449219 47.125 174.203125 C 46.710938 172.5 46.953125 170.492188 48.074219 169.179688 Z M 48.074219 169.179688 " fill-opacity="1" fill-rule="nonzero"/></g><g fill="#ffffff" fill-opacity="1"><g transform="translate(113.512857, 204.778755)"><g><path d="M 13.140625 -27.140625 L 13.140625 0 L 3.1875 0 L 3.1875 -43.71875 L 13.140625 -43.71875 L 30.53125 -16.59375 L 30.640625 -16.59375 L 30.640625 -43.71875 L 40.59375 -43.71875 L 40.59375 0 L 30.640625 0 L 13.25 -27.140625 Z M 13.140625 -27.140625 "/></g></g></g><g fill="#ffffff" fill-opacity="1"><g transform="translate(157.284434, 204.778755)"><g><path d="M 25.390625 -43.71875 L 43.03125 0 L 32.328125 0 L 29.09375 -8.75 L 12.453125 -8.75 L 9.21875 0 L -1.484375 0 L 16.171875 -43.71875 Z M 25.703125 -17.484375 L 20.828125 -30.203125 L 20.71875 -30.203125 L 15.84375 -17.484375 Z M 25.703125 -17.484375 "/></g></g></g><g fill="#ffffff" fill-opacity="1"><g transform="translate(198.830341, 204.778755)"><g><path d="M 3.1875 -43.71875 L 16.75 -43.71875 C 20.84375 -43.71875 24.109375 -42.84375 26.546875 -41.09375 C 28.984375 -39.351562 30.203125 -36.519531 30.203125 -32.59375 C 30.203125 -28.207031 28.382812 -25.082031 24.75 -23.21875 C 30.96875 -22.125 34.078125 -18.445312 34.078125 -12.1875 C 34.078125 -8.507812 32.804688 -5.554688 30.265625 -3.328125 C 27.722656 -1.109375 24.222656 0 19.765625 0 L 3.1875 0 Z M 13.140625 -26.609375 L 13.9375 -26.609375 C 16.164062 -26.609375 17.828125 -26.992188 18.921875 -27.765625 C 20.015625 -28.546875 20.5625 -29.820312 20.5625 -31.59375 C 20.5625 -34.5625 18.351562 -36.046875 13.9375 -36.046875 L 13.140625 -36.046875 Z M 13.140625 -7.6875 L 16.265625 -7.6875 C 21.140625 -7.6875 23.578125 -9.3125 23.578125 -12.5625 C 23.578125 -14.5 22.96875 -15.890625 21.75 -16.734375 C 20.53125 -17.585938 18.703125 -18.015625 16.265625 -18.015625 L 13.140625 -18.015625 Z M 13.140625 -7.6875 "/></g></g></g><g fill="#ffffff" fill-opacity="1"><g transform="translate(234.123162, 204.778755)"><g><path d="M 13.140625 -43.71875 L 13.140625 0 L 3.1875 0 L 3.1875 -43.71875 Z M 13.140625 -43.71875 "/></g></g></g><g fill="#ffffff" fill-opacity="1"><g transform="translate(250.444771, 204.778755)"><g><path d="M 3.1875 -43.71875 L 18.8125 -43.71875 C 23.019531 -43.71875 26.445312 -42.597656 29.09375 -40.359375 C 31.75 -38.117188 33.078125 -34.910156 33.078125 -30.734375 C 33.078125 -27.523438 32.269531 -24.832031 30.65625 -22.65625 C 29.050781 -20.476562 26.867188 -18.953125 24.109375 -18.078125 L 39.171875 0 L 26.5 0 L 13.140625 -17.28125 L 13.140625 0 L 3.1875 0 Z M 13.140625 -24.328125 L 14.3125 -24.328125 C 15.226562 -24.328125 16.003906 -24.34375 16.640625 -24.375 C 17.273438 -24.414062 18 -24.539062 18.8125 -24.75 C 19.625 -24.957031 20.273438 -25.253906 20.765625 -25.640625 C 21.265625 -26.035156 21.691406 -26.601562 22.046875 -27.34375 C 22.398438 -28.09375 22.578125 -28.992188 22.578125 -30.046875 C 22.578125 -31.109375 22.398438 -32.007812 22.046875 -32.75 C 21.691406 -33.488281 21.265625 -34.050781 20.765625 -34.4375 C 20.273438 -34.832031 19.625 -35.132812 18.8125 -35.34375 C 18 -35.5625 17.273438 -35.6875 16.640625 -35.71875 C 16.003906 -35.757812 15.226562 -35.78125 14.3125 -35.78125 L 13.140625 -35.78125 Z M 13.140625 -24.328125 "/></g></g></g><g fill="#ffffff" fill-opacity="1"><g transform="translate(288.387197, 204.778755)"><g><path d="M 36.78125 -43.71875 L 36.78125 -15.53125 C 36.78125 -10.15625 35.332031 -6.085938 32.4375 -3.328125 C 29.539062 -0.578125 25.300781 0.796875 19.71875 0.796875 C 14.132812 0.796875 9.894531 -0.578125 7 -3.328125 C 4.101562 -6.085938 2.65625 -10.15625 2.65625 -15.53125 L 2.65625 -43.71875 L 12.609375 -43.71875 L 12.609375 -18.4375 C 12.609375 -14.90625 13.164062 -12.453125 14.28125 -11.078125 C 15.394531 -9.703125 17.207031 -9.015625 19.71875 -9.015625 C 22.226562 -9.015625 24.035156 -9.703125 25.140625 -11.078125 C 26.253906 -12.453125 26.8125 -14.90625 26.8125 -18.4375 L 26.8125 -43.71875 Z M 36.78125 -43.71875 "/></g></g></g><g fill="#ffffff" fill-opacity="1"><g transform="translate(67.763415, 232.590863)"><g><path d="M 0.34375 -0.578125 L 0.34375 -4.15625 L 1.453125 -4.15625 C 1.691406 -4.15625 1.835938 -4.039062 1.890625 -3.8125 C 1.929688 -3.65625 1.988281 -3.125 2.0625 -2.21875 C 2.613281 -2.050781 3.492188 -1.96875 4.703125 -1.96875 C 5.441406 -1.96875 6.015625 -2.140625 6.421875 -2.484375 C 6.816406 -2.816406 7.015625 -3.316406 7.015625 -3.984375 C 7.015625 -4.347656 6.925781 -4.648438 6.75 -4.890625 C 6.570312 -5.117188 6.328125 -5.3125 6.015625 -5.46875 C 5.648438 -5.644531 5.304688 -5.78125 4.984375 -5.875 C 4.296875 -6.082031 3.90625 -6.203125 3.8125 -6.234375 C 3.488281 -6.335938 3.097656 -6.488281 2.640625 -6.6875 C 2.273438 -6.851562 1.925781 -7.085938 1.59375 -7.390625 C 1.28125 -7.691406 1.046875 -8.050781 0.890625 -8.46875 C 0.691406 -8.957031 0.59375 -9.492188 0.59375 -10.078125 C 0.59375 -10.609375 0.695312 -11.101562 0.90625 -11.5625 C 1.09375 -12.039062 1.382812 -12.46875 1.78125 -12.84375 C 2.132812 -13.175781 2.613281 -13.472656 3.21875 -13.734375 C 3.757812 -13.960938 4.410156 -14.078125 5.171875 -14.078125 C 6.515625 -14.078125 7.84375 -13.816406 9.15625 -13.296875 L 9.15625 -9.734375 L 8.046875 -9.734375 C 7.804688 -9.734375 7.660156 -9.851562 7.609375 -10.09375 C 7.566406 -10.257812 7.507812 -10.78125 7.4375 -11.65625 C 6.976562 -11.863281 6.226562 -11.96875 5.1875 -11.96875 C 4.84375 -11.96875 4.535156 -11.929688 4.265625 -11.859375 C 3.972656 -11.753906 3.742188 -11.628906 3.578125 -11.484375 C 3.390625 -11.316406 3.25 -11.128906 3.15625 -10.921875 C 3.070312 -10.722656 3.03125 -10.484375 3.03125 -10.203125 C 3.03125 -9.898438 3.125 -9.628906 3.3125 -9.390625 C 3.488281 -9.171875 3.726562 -8.988281 4.03125 -8.84375 C 4.4375 -8.644531 4.785156 -8.503906 5.078125 -8.421875 C 5.222656 -8.378906 5.441406 -8.304688 5.734375 -8.203125 C 6.035156 -8.097656 6.207031 -8.039062 6.25 -8.03125 C 6.4375 -7.96875 6.820312 -7.804688 7.40625 -7.546875 C 7.789062 -7.378906 8.140625 -7.148438 8.453125 -6.859375 C 8.796875 -6.535156 9.039062 -6.195312 9.1875 -5.84375 C 9.375 -5.457031 9.46875 -4.960938 9.46875 -4.359375 C 9.46875 -3.742188 9.359375 -3.15625 9.140625 -2.59375 C 8.921875 -2.03125 8.601562 -1.550781 8.1875 -1.15625 C 7.78125 -0.75 7.273438 -0.425781 6.671875 -0.1875 C 6.097656 0.0390625 5.414062 0.15625 4.625 0.15625 L 4.34375 0.15625 C 3.113281 0.15625 1.78125 -0.0859375 0.34375 -0.578125 Z M 0.34375 -0.578125 "/></g></g></g><g fill="#ffffff" fill-opacity="1"><g transform="translate(81.345253, 232.590863)"><g><path d="M 0.390625 0 L 0.390625 -1.140625 C 0.390625 -1.460938 0.546875 -1.660156 0.859375 -1.734375 L 0.90625 -1.734375 C 0.925781 -1.742188 0.953125 -1.75 0.984375 -1.75 C 1.054688 -1.769531 1.148438 -1.789062 1.265625 -1.8125 C 1.304688 -1.820312 1.351562 -1.832031 1.40625 -1.84375 C 1.46875 -1.851562 1.539062 -1.863281 1.625 -1.875 C 1.71875 -1.882812 1.796875 -1.894531 1.859375 -1.90625 L 1.859375 -12.015625 C 1.796875 -12.035156 1.71875 -12.050781 1.625 -12.0625 C 1.539062 -12.070312 1.46875 -12.082031 1.40625 -12.09375 C 1.351562 -12.101562 1.304688 -12.109375 1.265625 -12.109375 C 1.222656 -12.117188 1.164062 -12.128906 1.09375 -12.140625 C 1.03125 -12.160156 0.992188 -12.171875 0.984375 -12.171875 C 0.941406 -12.179688 0.898438 -12.1875 0.859375 -12.1875 C 0.546875 -12.257812 0.390625 -12.460938 0.390625 -12.796875 L 0.390625 -13.9375 L 6.140625 -13.9375 C 7.066406 -13.9375 7.875 -13.828125 8.5625 -13.609375 C 9.226562 -13.390625 9.789062 -13.082031 10.25 -12.6875 C 10.675781 -12.300781 11.003906 -11.832031 11.234375 -11.28125 C 11.453125 -10.738281 11.5625 -10.144531 11.5625 -9.5 C 11.5625 -8.800781 11.445312 -8.175781 11.21875 -7.625 C 10.96875 -7.050781 10.628906 -6.570312 10.203125 -6.1875 C 9.785156 -5.800781 9.222656 -5.484375 8.515625 -5.234375 C 7.878906 -5.015625 7.085938 -4.90625 6.140625 -4.90625 L 4.4375 -4.90625 L 4.4375 -1.90625 C 4.5 -1.894531 4.59375 -1.878906 4.71875 -1.859375 C 4.851562 -1.835938 4.945312 -1.820312 5 -1.8125 C 5.050781 -1.8125 5.109375 -1.800781 5.171875 -1.78125 C 5.234375 -1.757812 5.273438 -1.75 5.296875 -1.75 C 5.316406 -1.75 5.335938 -1.742188 5.359375 -1.734375 C 5.390625 -1.734375 5.40625 -1.734375 5.40625 -1.734375 C 5.726562 -1.660156 5.890625 -1.460938 5.890625 -1.140625 L 5.890625 0 Z M 4.4375 -6.9375 L 6.140625 -6.9375 C 6.609375 -6.9375 7.023438 -6.992188 7.390625 -7.109375 C 7.765625 -7.234375 8.054688 -7.398438 8.265625 -7.609375 C 8.492188 -7.828125 8.664062 -8.097656 8.78125 -8.421875 C 8.894531 -8.734375 8.953125 -9.09375 8.953125 -9.5 C 8.953125 -9.851562 8.894531 -10.1875 8.78125 -10.5 C 8.675781 -10.789062 8.503906 -11.046875 8.265625 -11.265625 C 8.046875 -11.472656 7.753906 -11.632812 7.390625 -11.75 C 7.023438 -11.863281 6.609375 -11.921875 6.140625 -11.921875 L 4.4375 -11.921875 Z M 4.4375 -6.9375 "/></g></g></g><g fill="#ffffff" fill-opacity="1"><g transform="translate(97.043675, 232.590863)"><g><path d="M 0.265625 -6.96875 C 0.265625 -8.03125 0.429688 -8.972656 0.765625 -9.796875 C 1.117188 -10.671875 1.601562 -11.425781 2.21875 -12.0625 C 2.84375 -12.707031 3.585938 -13.203125 4.453125 -13.546875 C 5.335938 -13.898438 6.300781 -14.078125 7.34375 -14.078125 C 8.414062 -14.078125 9.367188 -13.898438 10.203125 -13.546875 C 11.109375 -13.160156 11.859375 -12.664062 12.453125 -12.0625 C 13.046875 -11.445312 13.519531 -10.691406 13.875 -9.796875 C 14.21875 -8.941406 14.390625 -8 14.390625 -6.96875 C 14.390625 -5.925781 14.21875 -4.976562 13.875 -4.125 C 13.519531 -3.238281 13.046875 -2.488281 12.453125 -1.875 C 11.828125 -1.226562 11.078125 -0.734375 10.203125 -0.390625 C 9.316406 -0.0234375 8.363281 0.15625 7.34375 0.15625 C 6.300781 0.15625 5.335938 -0.0234375 4.453125 -0.390625 C 3.585938 -0.734375 2.84375 -1.226562 2.21875 -1.875 C 1.59375 -2.507812 1.109375 -3.257812 0.765625 -4.125 C 0.429688 -4.945312 0.265625 -5.894531 0.265625 -6.96875 Z M 2.90625 -6.96875 C 2.90625 -6.1875 3.007812 -5.5 3.21875 -4.90625 C 3.425781 -4.289062 3.71875 -3.78125 4.09375 -3.375 C 4.46875 -2.957031 4.9375 -2.628906 5.5 -2.390625 C 6 -2.171875 6.613281 -2.0625 7.34375 -2.0625 C 8.0625 -2.0625 8.671875 -2.171875 9.171875 -2.390625 C 9.710938 -2.628906 10.175781 -2.957031 10.5625 -3.375 C 10.945312 -3.8125 11.234375 -4.320312 11.421875 -4.90625 C 11.628906 -5.59375 11.734375 -6.28125 11.734375 -6.96875 C 11.734375 -7.644531 11.628906 -8.328125 11.421875 -9.015625 C 11.234375 -9.597656 10.945312 -10.113281 10.5625 -10.5625 C 10.164062 -10.976562 9.703125 -11.304688 9.171875 -11.546875 C 8.671875 -11.765625 8.0625 -11.875 7.34375 -11.875 C 6.613281 -11.875 6 -11.765625 5.5 -11.546875 C 4.945312 -11.304688 4.476562 -10.976562 4.09375 -10.5625 C 3.71875 -10.144531 3.425781 -9.628906 3.21875 -9.015625 C 3.007812 -8.421875 2.90625 -7.738281 2.90625 -6.96875 Z M 2.90625 -6.96875 "/></g></g></g><g fill="#ffffff" fill-opacity="1"><g transform="translate(115.573619, 232.590863)"><g><path d="M 0.390625 0 L 0.390625 -1.140625 C 0.390625 -1.460938 0.546875 -1.660156 0.859375 -1.734375 L 0.90625 -1.734375 C 0.925781 -1.742188 0.953125 -1.75 0.984375 -1.75 C 1.054688 -1.769531 1.148438 -1.789062 1.265625 -1.8125 C 1.304688 -1.820312 1.351562 -1.832031 1.40625 -1.84375 C 1.46875 -1.851562 1.539062 -1.863281 1.625 -1.875 C 1.71875 -1.882812 1.796875 -1.894531 1.859375 -1.90625 L 1.859375 -12.015625 C 1.796875 -12.035156 1.71875 -12.050781 1.625 -12.0625 C 1.539062 -12.070312 1.46875 -12.082031 1.40625 -12.09375 C 1.351562 -12.101562 1.304688 -12.109375 1.265625 -12.109375 C 1.222656 -12.117188 1.164062 -12.128906 1.09375 -12.140625 C 1.03125 -12.160156 0.992188 -12.171875 0.984375 -12.171875 C 0.953125 -12.171875 0.925781 -12.175781 0.90625 -12.1875 L 0.859375 -12.1875 C 0.546875 -12.257812 0.390625 -12.460938 0.390625 -12.796875 L 0.390625 -13.9375 L 5.953125 -13.9375 C 6.878906 -13.9375 7.695312 -13.835938 8.40625 -13.640625 C 9.050781 -13.460938 9.601562 -13.1875 10.0625 -12.8125 C 10.507812 -12.4375 10.828125 -12.015625 11.015625 -11.546875 C 11.222656 -11.066406 11.328125 -10.523438 11.328125 -9.921875 C 11.328125 -9.472656 11.257812 -9.03125 11.125 -8.59375 C 11.007812 -8.238281 10.804688 -7.859375 10.515625 -7.453125 C 10.273438 -7.117188 9.957031 -6.820312 9.5625 -6.5625 C 9.164062 -6.3125 8.726562 -6.109375 8.25 -5.953125 C 8.570312 -5.765625 8.851562 -5.492188 9.09375 -5.140625 L 11.28125 -1.90625 C 11.644531 -1.851562 11.847656 -1.820312 11.890625 -1.8125 C 11.941406 -1.8125 12 -1.800781 12.0625 -1.78125 C 12.132812 -1.757812 12.179688 -1.75 12.203125 -1.75 C 12.234375 -1.75 12.269531 -1.742188 12.3125 -1.734375 L 12.375 -1.734375 C 12.6875 -1.660156 12.84375 -1.460938 12.84375 -1.140625 L 12.84375 0 L 10.25 0 C 10 0 9.804688 -0.0390625 9.671875 -0.125 C 9.523438 -0.21875 9.394531 -0.347656 9.28125 -0.515625 L 6.359375 -4.984375 C 6.253906 -5.140625 6.128906 -5.253906 5.984375 -5.328125 C 5.847656 -5.410156 5.65625 -5.453125 5.40625 -5.453125 L 4.4375 -5.453125 L 4.4375 -1.90625 C 4.5 -1.894531 4.59375 -1.878906 4.71875 -1.859375 C 4.851562 -1.835938 4.945312 -1.820312 5 -1.8125 C 5.050781 -1.8125 5.109375 -1.800781 5.171875 -1.78125 C 5.234375 -1.757812 5.273438 -1.75 5.296875 -1.75 C 5.316406 -1.75 5.335938 -1.742188 5.359375 -1.734375 C 5.390625 -1.734375 5.40625 -1.734375 5.40625 -1.734375 C 5.726562 -1.660156 5.890625 -1.460938 5.890625 -1.140625 L 5.890625 0 Z M 4.4375 -7.296875 L 5.921875 -7.296875 C 6.335938 -7.296875 6.757812 -7.363281 7.1875 -7.5 C 7.550781 -7.613281 7.851562 -7.78125 8.09375 -8 C 8.3125 -8.207031 8.476562 -8.460938 8.59375 -8.765625 C 8.71875 -9.078125 8.78125 -9.398438 8.78125 -9.734375 C 8.78125 -10.429688 8.550781 -10.972656 8.09375 -11.359375 C 7.632812 -11.734375 6.921875 -11.921875 5.953125 -11.921875 L 4.4375 -11.921875 Z M 4.4375 -7.296875 "/></g></g></g><g fill="#ffffff" fill-opacity="1"><g transform="translate(132.617246, 232.590863)"><g><path d="M 0.3125 -10.625 L 0.3125 -13.9375 L 11.890625 -13.9375 L 11.890625 -10.625 L 10.796875 -10.625 C 10.535156 -10.625 10.378906 -10.75 10.328125 -11 C 10.273438 -11.28125 10.238281 -11.539062 10.21875 -11.78125 L 7.390625 -11.78125 L 7.390625 -1.90625 C 7.460938 -1.894531 7.5625 -1.878906 7.6875 -1.859375 C 7.820312 -1.835938 7.910156 -1.820312 7.953125 -1.8125 C 8.003906 -1.8125 8.0625 -1.800781 8.125 -1.78125 C 8.1875 -1.757812 8.226562 -1.75 8.25 -1.75 C 8.269531 -1.75 8.289062 -1.742188 8.3125 -1.734375 C 8.34375 -1.734375 8.359375 -1.734375 8.359375 -1.734375 C 8.691406 -1.660156 8.859375 -1.460938 8.859375 -1.140625 L 8.859375 0 L 3.34375 0 L 3.34375 -1.140625 C 3.34375 -1.460938 3.507812 -1.660156 3.84375 -1.734375 L 3.875 -1.734375 C 3.894531 -1.742188 3.921875 -1.75 3.953125 -1.75 C 3.972656 -1.75 4.015625 -1.757812 4.078125 -1.78125 C 4.140625 -1.800781 4.191406 -1.8125 4.234375 -1.8125 C 4.285156 -1.820312 4.375 -1.835938 4.5 -1.859375 C 4.625 -1.878906 4.722656 -1.894531 4.796875 -1.90625 L 4.796875 -11.8125 L 1.96875 -11.8125 C 1.9375 -11.457031 1.90625 -11.1875 1.875 -11 C 1.8125 -10.75 1.664062 -10.625 1.4375 -10.625 Z M 0.3125 -10.625 "/></g></g></g><g fill="#ffffff" fill-opacity="1"><g transform="translate(148.663727, 232.590863)"><g><path d="M 0.34375 -0.578125 L 0.34375 -4.15625 L 1.453125 -4.15625 C 1.691406 -4.15625 1.835938 -4.039062 1.890625 -3.8125 C 1.929688 -3.65625 1.988281 -3.125 2.0625 -2.21875 C 2.613281 -2.050781 3.492188 -1.96875 4.703125 -1.96875 C 5.441406 -1.96875 6.015625 -2.140625 6.421875 -2.484375 C 6.816406 -2.816406 7.015625 -3.316406 7.015625 -3.984375 C 7.015625 -4.347656 6.925781 -4.648438 6.75 -4.890625 C 6.570312 -5.117188 6.328125 -5.3125 6.015625 -5.46875 C 5.648438 -5.644531 5.304688 -5.78125 4.984375 -5.875 C 4.296875 -6.082031 3.90625 -6.203125 3.8125 -6.234375 C 3.488281 -6.335938 3.097656 -6.488281 2.640625 -6.6875 C 2.273438 -6.851562 1.925781 -7.085938 1.59375 -7.390625 C 1.28125 -7.691406 1.046875 -8.050781 0.890625 -8.46875 C 0.691406 -8.957031 0.59375 -9.492188 0.59375 -10.078125 C 0.59375 -10.609375 0.695312 -11.101562 0.90625 -11.5625 C 1.09375 -12.039062 1.382812 -12.46875 1.78125 -12.84375 C 2.132812 -13.175781 2.613281 -13.472656 3.21875 -13.734375 C 3.757812 -13.960938 4.410156 -14.078125 5.171875 -14.078125 C 6.515625 -14.078125 7.84375 -13.816406 9.15625 -13.296875 L 9.15625 -9.734375 L 8.046875 -9.734375 C 7.804688 -9.734375 7.660156 -9.851562 7.609375 -10.09375 C 7.566406 -10.257812 7.507812 -10.78125 7.4375 -11.65625 C 6.976562 -11.863281 6.226562 -11.96875 5.1875 -11.96875 C 4.84375 -11.96875 4.535156 -11.929688 4.265625 -11.859375 C 3.972656 -11.753906 3.742188 -11.628906 3.578125 -11.484375 C 3.390625 -11.316406 3.25 -11.128906 3.15625 -10.921875 C 3.070312 -10.722656 3.03125 -10.484375 3.03125 -10.203125 C 3.03125 -9.898438 3.125 -9.628906 3.3125 -9.390625 C 3.488281 -9.171875 3.726562 -8.988281 4.03125 -8.84375 C 4.4375 -8.644531 4.785156 -8.503906 5.078125 -8.421875 C 5.222656 -8.378906 5.441406 -8.304688 5.734375 -8.203125 C 6.035156 -8.097656 6.207031 -8.039062 6.25 -8.03125 C 6.4375 -7.96875 6.820312 -7.804688 7.40625 -7.546875 C 7.789062 -7.378906 8.140625 -7.148438 8.453125 -6.859375 C 8.796875 -6.535156 9.039062 -6.195312 9.1875 -5.84375 C 9.375 -5.457031 9.46875 -4.960938 9.46875 -4.359375 C 9.46875 -3.742188 9.359375 -3.15625 9.140625 -2.59375 C 8.921875 -2.03125 8.601562 -1.550781 8.1875 -1.15625 C 7.78125 -0.75 7.273438 -0.425781 6.671875 -0.1875 C 6.097656 0.0390625 5.414062 0.15625 4.625 0.15625 L 4.34375 0.15625 C 3.113281 0.15625 1.78125 -0.0859375 0.34375 -0.578125 Z M 0.34375 -0.578125 "/></g></g></g><g fill="#ffffff" fill-opacity="1"><g transform="translate(162.245563, 232.590863)"><g/></g></g><g fill="#ffffff" fill-opacity="1"><g transform="translate(170.550053, 232.590863)"><g><path d="M 0.390625 0 L 0.390625 -1.140625 C 0.390625 -1.460938 0.546875 -1.660156 0.859375 -1.734375 L 0.90625 -1.734375 C 0.925781 -1.742188 0.953125 -1.75 0.984375 -1.75 C 0.992188 -1.75 1.03125 -1.757812 1.09375 -1.78125 C 1.164062 -1.800781 1.222656 -1.8125 1.265625 -1.8125 C 1.304688 -1.820312 1.351562 -1.832031 1.40625 -1.84375 C 1.46875 -1.851562 1.539062 -1.863281 1.625 -1.875 C 1.71875 -1.882812 1.796875 -1.894531 1.859375 -1.90625 L 1.859375 -12.015625 C 1.796875 -12.035156 1.71875 -12.050781 1.625 -12.0625 C 1.539062 -12.070312 1.46875 -12.082031 1.40625 -12.09375 C 1.351562 -12.101562 1.304688 -12.109375 1.265625 -12.109375 C 1.222656 -12.117188 1.164062 -12.128906 1.09375 -12.140625 C 1.03125 -12.160156 0.992188 -12.171875 0.984375 -12.171875 C 0.941406 -12.179688 0.898438 -12.1875 0.859375 -12.1875 C 0.546875 -12.257812 0.390625 -12.460938 0.390625 -12.796875 L 0.390625 -13.9375 L 11.125 -13.9375 L 11.125 -10.265625 L 10 -10.265625 C 9.757812 -10.265625 9.613281 -10.382812 9.5625 -10.625 C 9.476562 -11.226562 9.429688 -11.644531 9.421875 -11.875 L 4.453125 -11.875 L 4.453125 -7.734375 L 9.328125 -7.734375 L 9.328125 -5.6875 L 4.453125 -5.6875 L 4.453125 -1.90625 C 4.503906 -1.894531 4.570312 -1.882812 4.65625 -1.875 C 4.75 -1.863281 4.820312 -1.851562 4.875 -1.84375 C 4.9375 -1.832031 4.988281 -1.820312 5.03125 -1.8125 C 5.070312 -1.8125 5.125 -1.800781 5.1875 -1.78125 C 5.25 -1.757812 5.289062 -1.75 5.3125 -1.75 C 5.332031 -1.75 5.359375 -1.742188 5.390625 -1.734375 L 5.4375 -1.734375 C 5.757812 -1.660156 5.921875 -1.460938 5.921875 -1.140625 L 5.921875 0 Z M 0.390625 0 "/></g></g></g><g fill="#ffffff" fill-opacity="1"><g transform="translate(185.825157, 232.590863)"><g><path d="M 0.328125 0 L 0.328125 -0.984375 C 0.328125 -1.203125 0.457031 -1.367188 0.71875 -1.484375 C 0.9375 -1.578125 1.285156 -1.722656 1.765625 -1.921875 L 6.46875 -13.9375 L 9.140625 -13.9375 L 13.859375 -1.921875 C 14.335938 -1.722656 14.6875 -1.578125 14.90625 -1.484375 C 15.15625 -1.398438 15.28125 -1.234375 15.28125 -0.984375 L 15.28125 0 L 10.578125 0 L 10.578125 -0.984375 C 10.578125 -1.203125 10.703125 -1.367188 10.953125 -1.484375 C 10.960938 -1.492188 10.984375 -1.503906 11.015625 -1.515625 C 11.054688 -1.523438 11.101562 -1.539062 11.15625 -1.5625 C 11.21875 -1.582031 11.28125 -1.609375 11.34375 -1.640625 L 11.265625 -1.859375 L 10.578125 -3.734375 L 5.03125 -3.734375 L 4.3125 -1.75 L 4.265625 -1.640625 C 4.328125 -1.609375 4.382812 -1.582031 4.4375 -1.5625 C 4.5 -1.539062 4.546875 -1.519531 4.578125 -1.5 C 4.617188 -1.488281 4.640625 -1.484375 4.640625 -1.484375 C 4.898438 -1.367188 5.03125 -1.203125 5.03125 -0.984375 L 5.03125 0 Z M 5.703125 -5.5625 L 9.921875 -5.5625 L 8.328125 -9.90625 C 8.296875 -9.96875 8.253906 -10.070312 8.203125 -10.21875 C 8.148438 -10.375 8.109375 -10.503906 8.078125 -10.609375 C 8.046875 -10.679688 7.953125 -10.992188 7.796875 -11.546875 C 7.640625 -10.984375 7.550781 -10.671875 7.53125 -10.609375 C 7.507812 -10.523438 7.484375 -10.4375 7.453125 -10.34375 C 7.421875 -10.257812 7.390625 -10.175781 7.359375 -10.09375 C 7.328125 -10.007812 7.300781 -9.941406 7.28125 -9.890625 Z M 5.703125 -5.5625 "/></g></g></g><g fill="#ffffff" fill-opacity="1"><g transform="translate(205.314616, 232.590863)"><g><path d="M 0.265625 -6.953125 C 0.265625 -8.023438 0.441406 -8.988281 0.796875 -9.84375 C 1.128906 -10.695312 1.613281 -11.441406 2.25 -12.078125 C 2.914062 -12.734375 3.664062 -13.226562 4.5 -13.5625 C 5.363281 -13.90625 6.332031 -14.078125 7.40625 -14.078125 C 8.601562 -14.078125 10.0625 -13.742188 11.78125 -13.078125 L 11.78125 -9.53125 L 10.671875 -9.53125 C 10.429688 -9.53125 10.28125 -9.648438 10.21875 -9.890625 C 10.1875 -10.046875 10.132812 -10.554688 10.0625 -11.421875 C 9.03125 -11.722656 8.140625 -11.875 7.390625 -11.875 C 6.710938 -11.875 6.113281 -11.765625 5.59375 -11.546875 C 5.039062 -11.304688 4.566406 -10.976562 4.171875 -10.5625 C 3.796875 -10.132812 3.488281 -9.617188 3.25 -9.015625 C 3.019531 -8.398438 2.90625 -7.710938 2.90625 -6.953125 C 2.90625 -6.179688 3.019531 -5.488281 3.25 -4.875 C 3.5 -4.21875 3.796875 -3.703125 4.140625 -3.328125 C 4.492188 -2.941406 4.945312 -2.625 5.5 -2.375 C 5.976562 -2.15625 6.53125 -2.046875 7.15625 -2.046875 C 7.5 -2.046875 7.816406 -2.0625 8.109375 -2.09375 C 8.367188 -2.125 8.632812 -2.1875 8.90625 -2.28125 C 9.113281 -2.34375 9.335938 -2.445312 9.578125 -2.59375 C 9.679688 -2.65625 9.890625 -2.828125 10.203125 -3.109375 C 10.234375 -3.140625 10.304688 -3.179688 10.421875 -3.234375 C 10.472656 -3.265625 10.550781 -3.28125 10.65625 -3.28125 C 10.8125 -3.28125 10.929688 -3.226562 11.015625 -3.125 L 12.046875 -2 C 11.484375 -1.300781 10.789062 -0.769531 9.96875 -0.40625 C 9.125 -0.03125 8.125 0.15625 6.96875 0.15625 C 5.96875 0.15625 5.046875 -0.0234375 4.203125 -0.390625 C 3.335938 -0.742188 2.628906 -1.234375 2.078125 -1.859375 C 1.484375 -2.515625 1.035156 -3.257812 0.734375 -4.09375 C 0.421875 -4.957031 0.265625 -5.910156 0.265625 -6.953125 Z M 0.265625 -6.953125 "/></g></g></g><g fill="#ffffff" fill-opacity="1"><g transform="translate(221.436353, 232.590863)"><g><path d="M 0.390625 0 L 0.390625 -1.140625 C 0.390625 -1.460938 0.546875 -1.660156 0.859375 -1.734375 L 0.90625 -1.734375 C 0.925781 -1.742188 0.953125 -1.75 0.984375 -1.75 C 1.054688 -1.769531 1.148438 -1.789062 1.265625 -1.8125 C 1.304688 -1.820312 1.351562 -1.832031 1.40625 -1.84375 C 1.46875 -1.851562 1.539062 -1.863281 1.625 -1.875 C 1.71875 -1.882812 1.796875 -1.894531 1.859375 -1.90625 L 1.859375 -12.015625 C 1.796875 -12.035156 1.71875 -12.050781 1.625 -12.0625 C 1.539062 -12.070312 1.46875 -12.082031 1.40625 -12.09375 C 1.351562 -12.101562 1.304688 -12.109375 1.265625 -12.109375 C 1.222656 -12.117188 1.164062 -12.128906 1.09375 -12.140625 C 1.03125 -12.160156 0.992188 -12.171875 0.984375 -12.171875 C 0.941406 -12.179688 0.898438 -12.1875 0.859375 -12.1875 C 0.546875 -12.257812 0.390625 -12.460938 0.390625 -12.796875 L 0.390625 -13.9375 L 5.890625 -13.9375 L 5.890625 -12.796875 C 5.890625 -12.460938 5.726562 -12.257812 5.40625 -12.1875 C 5.40625 -12.1875 5.390625 -12.179688 5.359375 -12.171875 C 5.335938 -12.171875 5.316406 -12.171875 5.296875 -12.171875 C 5.273438 -12.171875 5.234375 -12.160156 5.171875 -12.140625 C 5.109375 -12.128906 5.050781 -12.117188 5 -12.109375 C 4.957031 -12.109375 4.875 -12.097656 4.75 -12.078125 C 4.625 -12.054688 4.523438 -12.035156 4.453125 -12.015625 L 4.453125 -1.90625 C 4.523438 -1.894531 4.625 -1.878906 4.75 -1.859375 C 4.875 -1.835938 4.957031 -1.820312 5 -1.8125 C 5.050781 -1.8125 5.109375 -1.800781 5.171875 -1.78125 C 5.234375 -1.757812 5.273438 -1.75 5.296875 -1.75 C 5.316406 -1.75 5.335938 -1.742188 5.359375 -1.734375 C 5.390625 -1.734375 5.40625 -1.734375 5.40625 -1.734375 C 5.726562 -1.660156 5.890625 -1.460938 5.890625 -1.140625 L 5.890625 0 Z M 0.390625 0 "/></g></g></g><g fill="#ffffff" fill-opacity="1"><g transform="translate(231.565804, 232.590863)"><g><path d="M 0.390625 0 L 0.390625 -1.140625 C 0.390625 -1.460938 0.546875 -1.660156 0.859375 -1.734375 C 0.898438 -1.734375 0.941406 -1.738281 0.984375 -1.75 C 1.054688 -1.769531 1.148438 -1.789062 1.265625 -1.8125 C 1.304688 -1.820312 1.351562 -1.832031 1.40625 -1.84375 C 1.46875 -1.851562 1.539062 -1.863281 1.625 -1.875 C 1.71875 -1.882812 1.796875 -1.894531 1.859375 -1.90625 L 1.859375 -12.015625 C 1.796875 -12.035156 1.71875 -12.050781 1.625 -12.0625 C 1.539062 -12.070312 1.46875 -12.082031 1.40625 -12.09375 C 1.351562 -12.101562 1.304688 -12.109375 1.265625 -12.109375 C 1.222656 -12.117188 1.164062 -12.128906 1.09375 -12.140625 C 1.03125 -12.160156 0.992188 -12.171875 0.984375 -12.171875 C 0.941406 -12.179688 0.898438 -12.1875 0.859375 -12.1875 C 0.546875 -12.257812 0.390625 -12.460938 0.390625 -12.796875 L 0.390625 -13.9375 L 5.890625 -13.9375 L 5.890625 -12.796875 C 5.890625 -12.460938 5.726562 -12.257812 5.40625 -12.1875 C 5.375 -12.1875 5.335938 -12.179688 5.296875 -12.171875 C 5.242188 -12.148438 5.144531 -12.128906 5 -12.109375 C 4.945312 -12.109375 4.851562 -12.097656 4.71875 -12.078125 C 4.59375 -12.054688 4.5 -12.035156 4.4375 -12.015625 L 4.4375 -2.140625 L 8.921875 -2.140625 C 8.953125 -2.648438 8.976562 -2.925781 9 -2.96875 C 9.050781 -3.207031 9.195312 -3.328125 9.4375 -3.328125 L 10.484375 -3.328125 L 10.484375 0 Z M 0.390625 0 "/></g></g></g><g fill="#ffffff" fill-opacity="1"><g transform="translate(246.304707, 232.590863)"><g><path d="M 0.390625 0 L 0.390625 -1.140625 C 0.390625 -1.460938 0.546875 -1.660156 0.859375 -1.734375 L 0.90625 -1.734375 C 0.925781 -1.742188 0.953125 -1.75 0.984375 -1.75 C 1.054688 -1.769531 1.148438 -1.789062 1.265625 -1.8125 C 1.304688 -1.820312 1.351562 -1.832031 1.40625 -1.84375 C 1.46875 -1.851562 1.539062 -1.863281 1.625 -1.875 C 1.71875 -1.882812 1.796875 -1.894531 1.859375 -1.90625 L 1.859375 -12.015625 C 1.796875 -12.035156 1.71875 -12.050781 1.625 -12.0625 C 1.539062 -12.070312 1.46875 -12.082031 1.40625 -12.09375 C 1.351562 -12.101562 1.304688 -12.109375 1.265625 -12.109375 C 1.222656 -12.117188 1.164062 -12.128906 1.09375 -12.140625 C 1.03125 -12.160156 0.992188 -12.171875 0.984375 -12.171875 C 0.941406 -12.179688 0.898438 -12.1875 0.859375 -12.1875 C 0.546875 -12.257812 0.390625 -12.460938 0.390625 -12.796875 L 0.390625 -13.9375 L 5.890625 -13.9375 L 5.890625 -12.796875 C 5.890625 -12.460938 5.726562 -12.257812 5.40625 -12.1875 C 5.40625 -12.1875 5.390625 -12.179688 5.359375 -12.171875 C 5.335938 -12.171875 5.316406 -12.171875 5.296875 -12.171875 C 5.273438 -12.171875 5.234375 -12.160156 5.171875 -12.140625 C 5.109375 -12.128906 5.050781 -12.117188 5 -12.109375 C 4.957031 -12.109375 4.875 -12.097656 4.75 -12.078125 C 4.625 -12.054688 4.523438 -12.035156 4.453125 -12.015625 L 4.453125 -1.90625 C 4.523438 -1.894531 4.625 -1.878906 4.75 -1.859375 C 4.875 -1.835938 4.957031 -1.820312 5 -1.8125 C 5.050781 -1.8125 5.109375 -1.800781 5.171875 -1.78125 C 5.234375 -1.757812 5.273438 -1.75 5.296875 -1.75 C 5.316406 -1.75 5.335938 -1.742188 5.359375 -1.734375 C 5.390625 -1.734375 5.40625 -1.734375 5.40625 -1.734375 C 5.726562 -1.660156 5.890625 -1.460938 5.890625 -1.140625 L 5.890625 0 Z M 0.390625 0 "/></g></g></g><g fill="#ffffff" fill-opacity="1"><g transform="translate(256.434158, 232.590863)"><g><path d="M 0.3125 -10.625 L 0.3125 -13.9375 L 11.890625 -13.9375 L 11.890625 -10.625 L 10.796875 -10.625 C 10.535156 -10.625 10.378906 -10.75 10.328125 -11 C 10.273438 -11.28125 10.238281 -11.539062 10.21875 -11.78125 L 7.390625 -11.78125 L 7.390625 -1.90625 C 7.460938 -1.894531 7.5625 -1.878906 7.6875 -1.859375 C 7.820312 -1.835938 7.910156 -1.820312 7.953125 -1.8125 C 8.003906 -1.8125 8.0625 -1.800781 8.125 -1.78125 C 8.1875 -1.757812 8.226562 -1.75 8.25 -1.75 C 8.269531 -1.75 8.289062 -1.742188 8.3125 -1.734375 C 8.34375 -1.734375 8.359375 -1.734375 8.359375 -1.734375 C 8.691406 -1.660156 8.859375 -1.460938 8.859375 -1.140625 L 8.859375 0 L 3.34375 0 L 3.34375 -1.140625 C 3.34375 -1.460938 3.507812 -1.660156 3.84375 -1.734375 L 3.875 -1.734375 C 3.894531 -1.742188 3.921875 -1.75 3.953125 -1.75 C 3.972656 -1.75 4.015625 -1.757812 4.078125 -1.78125 C 4.140625 -1.800781 4.191406 -1.8125 4.234375 -1.8125 C 4.285156 -1.820312 4.375 -1.835938 4.5 -1.859375 C 4.625 -1.878906 4.722656 -1.894531 4.796875 -1.90625 L 4.796875 -11.8125 L 1.96875 -11.8125 C 1.9375 -11.457031 1.90625 -11.1875 1.875 -11 C 1.8125 -10.75 1.664062 -10.625 1.4375 -10.625 Z M 0.3125 -10.625 "/></g></g></g><g fill="#ffffff" fill-opacity="1"><g transform="translate(272.48065, 232.590863)"><g><path d="M 0.390625 0 L 0.390625 -1.140625 C 0.390625 -1.460938 0.546875 -1.660156 0.859375 -1.734375 L 0.90625 -1.734375 C 0.925781 -1.742188 0.953125 -1.75 0.984375 -1.75 C 1.054688 -1.769531 1.148438 -1.789062 1.265625 -1.8125 C 1.304688 -1.820312 1.351562 -1.832031 1.40625 -1.84375 C 1.46875 -1.851562 1.539062 -1.863281 1.625 -1.875 C 1.71875 -1.882812 1.796875 -1.894531 1.859375 -1.90625 L 1.859375 -12.015625 C 1.796875 -12.035156 1.71875 -12.050781 1.625 -12.0625 C 1.539062 -12.070312 1.46875 -12.082031 1.40625 -12.09375 C 1.351562 -12.101562 1.304688 -12.109375 1.265625 -12.109375 C 1.222656 -12.117188 1.164062 -12.128906 1.09375 -12.140625 C 1.03125 -12.160156 0.992188 -12.171875 0.984375 -12.171875 C 0.941406 -12.179688 0.898438 -12.1875 0.859375 -12.1875 C 0.546875 -12.257812 0.390625 -12.460938 0.390625 -12.796875 L 0.390625 -13.9375 L 5.890625 -13.9375 L 5.890625 -12.796875 C 5.890625 -12.460938 5.726562 -12.257812 5.40625 -12.1875 C 5.40625 -12.1875 5.390625 -12.179688 5.359375 -12.171875 C 5.335938 -12.171875 5.316406 -12.171875 5.296875 -12.171875 C 5.273438 -12.171875 5.234375 -12.160156 5.171875 -12.140625 C 5.109375 -12.128906 5.050781 -12.117188 5 -12.109375 C 4.957031 -12.109375 4.875 -12.097656 4.75 -12.078125 C 4.625 -12.054688 4.523438 -12.035156 4.453125 -12.015625 L 4.453125 -1.90625 C 4.523438 -1.894531 4.625 -1.878906 4.75 -1.859375 C 4.875 -1.835938 4.957031 -1.820312 5 -1.8125 C 5.050781 -1.8125 5.109375 -1.800781 5.171875 -1.78125 C 5.234375 -1.757812 5.273438 -1.75 5.296875 -1.75 C 5.316406 -1.75 5.335938 -1.742188 5.359375 -1.734375 C 5.390625 -1.734375 5.40625 -1.734375 5.40625 -1.734375 C 5.726562 -1.660156 5.890625 -1.460938 5.890625 -1.140625 L 5.890625 0 Z M 0.390625 0 "/></g></g></g><g fill="#ffffff" fill-opacity="1"><g transform="translate(282.610113, 232.590863)"><g><path d="M 0.390625 0 L 0.390625 -1.140625 C 0.390625 -1.460938 0.546875 -1.660156 0.859375 -1.734375 L 0.90625 -1.734375 C 0.925781 -1.742188 0.953125 -1.75 0.984375 -1.75 C 0.992188 -1.75 1.03125 -1.757812 1.09375 -1.78125 C 1.164062 -1.800781 1.222656 -1.8125 1.265625 -1.8125 C 1.304688 -1.820312 1.351562 -1.832031 1.40625 -1.84375 C 1.46875 -1.851562 1.539062 -1.863281 1.625 -1.875 C 1.71875 -1.882812 1.796875 -1.894531 1.859375 -1.90625 L 1.859375 -12.015625 C 1.796875 -12.035156 1.71875 -12.050781 1.625 -12.0625 C 1.539062 -12.070312 1.46875 -12.082031 1.40625 -12.09375 C 1.351562 -12.101562 1.304688 -12.109375 1.265625 -12.109375 C 1.222656 -12.117188 1.164062 -12.128906 1.09375 -12.140625 C 1.03125 -12.160156 0.992188 -12.171875 0.984375 -12.171875 C 0.953125 -12.171875 0.925781 -12.175781 0.90625 -12.1875 L 0.859375 -12.1875 C 0.546875 -12.257812 0.390625 -12.460938 0.390625 -12.796875 L 0.390625 -13.9375 L 10.625 -13.9375 L 10.625 -10.265625 L 9.515625 -10.265625 C 9.273438 -10.265625 9.128906 -10.382812 9.078125 -10.625 C 9.003906 -11.226562 8.957031 -11.644531 8.9375 -11.875 L 4.453125 -11.875 L 4.453125 -8.015625 L 9.171875 -8.015625 L 9.171875 -6.015625 L 4.453125 -6.015625 L 4.453125 -2.078125 L 8.9375 -2.078125 C 8.957031 -2.285156 9.003906 -2.695312 9.078125 -3.3125 C 9.128906 -3.550781 9.273438 -3.671875 9.515625 -3.671875 L 10.625 -3.671875 L 10.625 0 Z M 0.390625 0 "/></g></g></g><g fill="#ffffff" fill-opacity="1"><g transform="translate(297.518353, 232.590863)"><g><path d="M 0.34375 -0.578125 L 0.34375 -4.15625 L 1.453125 -4.15625 C 1.691406 -4.15625 1.835938 -4.039062 1.890625 -3.8125 C 1.929688 -3.65625 1.988281 -3.125 2.0625 -2.21875 C 2.613281 -2.050781 3.492188 -1.96875 4.703125 -1.96875 C 5.441406 -1.96875 6.015625 -2.140625 6.421875 -2.484375 C 6.816406 -2.816406 7.015625 -3.316406 7.015625 -3.984375 C 7.015625 -4.347656 6.925781 -4.648438 6.75 -4.890625 C 6.570312 -5.117188 6.328125 -5.3125 6.015625 -5.46875 C 5.648438 -5.644531 5.304688 -5.78125 4.984375 -5.875 C 4.296875 -6.082031 3.90625 -6.203125 3.8125 -6.234375 C 3.488281 -6.335938 3.097656 -6.488281 2.640625 -6.6875 C 2.273438 -6.851562 1.925781 -7.085938 1.59375 -7.390625 C 1.28125 -7.691406 1.046875 -8.050781 0.890625 -8.46875 C 0.691406 -8.957031 0.59375 -9.492188 0.59375 -10.078125 C 0.59375 -10.609375 0.695312 -11.101562 0.90625 -11.5625 C 1.09375 -12.039062 1.382812 -12.46875 1.78125 -12.84375 C 2.132812 -13.175781 2.613281 -13.472656 3.21875 -13.734375 C 3.757812 -13.960938 4.410156 -14.078125 5.171875 -14.078125 C 6.515625 -14.078125 7.84375 -13.816406 9.15625 -13.296875 L 9.15625 -9.734375 L 8.046875 -9.734375 C 7.804688 -9.734375 7.660156 -9.851562 7.609375 -10.09375 C 7.566406 -10.257812 7.507812 -10.78125 7.4375 -11.65625 C 6.976562 -11.863281 6.226562 -11.96875 5.1875 -11.96875 C 4.84375 -11.96875 4.535156 -11.929688 4.265625 -11.859375 C 3.972656 -11.753906 3.742188 -11.628906 3.578125 -11.484375 C 3.390625 -11.316406 3.25 -11.128906 3.15625 -10.921875 C 3.070312 -10.722656 3.03125 -10.484375 3.03125 -10.203125 C 3.03125 -9.898438 3.125 -9.628906 3.3125 -9.390625 C 3.488281 -9.171875 3.726562 -8.988281 4.03125 -8.84375 C 4.4375 -8.644531 4.785156 -8.503906 5.078125 -8.421875 C 5.222656 -8.378906 5.441406 -8.304688 5.734375 -8.203125 C 6.035156 -8.097656 6.207031 -8.039062 6.25 -8.03125 C 6.4375 -7.96875 6.820312 -7.804688 7.40625 -7.546875 C 7.789062 -7.378906 8.140625 -7.148438 8.453125 -6.859375 C 8.796875 -6.535156 9.039062 -6.195312 9.1875 -5.84375 C 9.375 -5.457031 9.46875 -4.960938 9.46875 -4.359375 C 9.46875 -3.742188 9.359375 -3.15625 9.140625 -2.59375 C 8.921875 -2.03125 8.601562 -1.550781 8.1875 -1.15625 C 7.78125 -0.75 7.273438 -0.425781 6.671875 -0.1875 C 6.097656 0.0390625 5.414062 0.15625 4.625 0.15625 L 4.34375 0.15625 C 3.113281 0.15625 1.78125 -0.0859375 0.34375 -0.578125 Z M 0.34375 -0.578125 "/></g></g></g></svg>